#!OML:ASF H:\MichaelJackson\Top Level 1\Subject 1\Session 1\male.ASF
:FULLY-SPECIFIED
:DEGREES
1
root 3.81094 16.8651 -18.8099 8.03809 -5.67055 -0.962073
lowerback -4.74842 0.127115 -2.0801
upperback -0.73238 0.238991 1.71777
thorax 1.89314 0.100907 2.95162
lowerneck -9.54468 -1.88006 -3.6899
upperneck 3.96593 -2.26547 3.27512
head 3.06367 -1.06081 1.60085
rclavicle 3.42904e-015 -3.18055e-015
rhumerus -38.1597 5.61345 -90.0819
rradius 35.8717
rwrist 12.7809
rhand -31.0538 -22.76
rfingers 7.12502
rthumb -4.33508 -52.6956
lclavicle 3.42904e-015 -3.18055e-015
lhumerus -37.3061 -6.52633 95.2468
lradius 39.2301
lwrist 6.13372
lhand -12.7612 4.74857
lfingers 7.12502
lthumb 13.3234 34.3027
rfemur -21.0932 5.03317 19.7926
rtibia 36.333
rfoot -19.5336 -12.1362
rtoes 6.86486
lfemur -19.83 1.75944 -20.7464
ltibia 35.9311
lfoot -23.5635 10.5314
ltoes 13.9765
2
root 3.81007 16.8651 -18.8109 8.0415 -5.74872 -0.970917
lowerback -4.79252 0.0986628 -2.11601
upperback -0.684687 0.201556 1.8021
thorax 1.96898 0.0800173 3.0573
lowerneck -9.60343 -1.83775 -3.82519
upperneck 3.83585 -2.18811 3.2819
head 3.03 -1.02383 1.63131
rclavicle -9.19379e-016 -1.07344e-014
rhumerus -38.0474 5.85316 -89.9913
rradius 35.8135
rwrist 12.7568
rhand -31 -22.6283
rfingers 7.12502
rthumb -4.28319 -52.565
lclavicle -9.19379e-016 -1.07344e-014
lhumerus -37.1905 -6.25409 95.2473
lradius 39.1299
lwrist 6.02558
lhand -12.7289 4.89749
lfingers 7.12502
lthumb 13.3545 34.4495
rfemur -21.1123 4.97811 19.7975
rtibia 36.3252
rfoot -19.5407 -11.9539
rtoes 6.59664
lfemur -19.8308 1.71303 -20.7433
ltibia 35.9487
lfoot -23.5558 10.6964
ltoes 13.8703
3
root 3.80514 16.8627 -18.8094 7.9353 -5.60606 -0.965819
lowerback -4.38303 -0.0137483 -2.04604
upperback -0.858432 0.0435624 1.77661
thorax 1.57204 0.00938165 2.97907
lowerneck -9.66083 -1.75987 -3.81252
upperneck 4.023 -2.0891 3.3105
head 3.10177 -0.973202 1.64548
rclavicle -1.66979e-014 2.32578e-014
rhumerus -38.3277 5.98441 -90.1401
rradius 35.7654
rwrist 12.8247
rhand -31.0382 -22.6412
rfingers 7.12502
rthumb -4.32001 -52.5771
lclavicle -1.66979e-014 2.32578e-014
lhumerus -37.5463 -6.01106 95.0846
lradius 39.1889
lwrist 6.04649
lhand -12.4878 5.84788
lfingers 7.12502
lthumb 13.5869 35.3845
rfemur -20.9389 5.08167 19.8284
rtibia 36.3235
rfoot -19.7003 -12.1096
rtoes 7.14265
lfemur -19.7129 1.67 -20.7041
ltibia 35.9483
lfoot -23.574 10.6145
ltoes 13.959
4
root 3.80761 16.8652 -18.8129 8.0518 -5.8418 -1.01712
lowerback -4.89094 0.126836 -2.08178
upperback -0.634901 0.237564 1.84463
thorax 2.07282 0.0959657 3.08527
lowerneck -9.64768 -1.82436 -3.78068
upperneck 3.70801 -2.16852 3.22987
head 2.99174 -1.01477 1.60624
rclavicle 6.4605e-016 5.1684e-015
rhumerus -37.9507 5.85234 -89.8637
rradius 35.6977
rwrist 12.8308
rhand -31.0339 -22.6373
rfingers 7.12502
rthumb -4.31591 -52.5733
lclavicle 6.4605e-016 5.1684e-015
lhumerus -37.1588 -6.10242 95.1991
lradius 39.0779
lwrist 6.01943
lhand -12.1684 7.2111
lfingers 7.12502
lthumb 13.8947 36.7269
rfemur -21.1202 4.93113 19.8383
rtibia 36.324
rfoot -19.6425 -11.6849
rtoes 7.2376
lfemur -19.8241 1.63126 -20.6877
ltibia 35.9422
lfoot -23.5538 10.8636
ltoes 13.9868
5
root 3.80541 16.8675 -18.8134 8.05991 -5.86548 -1.00266
lowerback -4.65883 0.0881056 -2.03819
upperback -0.770928 0.181643 1.81569
thorax 1.80699 0.0739352 3.02488
lowerneck -9.68069 -1.76633 -3.78689
upperneck 3.7842 -2.09442 3.29027
head 3.02268 -0.975644 1.63225
rclavicle 3.97569e-016 5.56597e-015
rhumerus -38.1244 5.8863 -89.9352
rradius 35.6455
rwrist 12.8908
rhand -31.0974 -22.6489
rfingers 7.12502
rthumb -4.37716 -52.5836
lclavicle 3.97569e-016 5.56597e-015
lhumerus -37.4351 -5.9598 95.0897
lradius 39.1439
lwrist 6.08386
lhand -12.3952 6.68026
lfingers 7.12502
lthumb 13.6761 36.2109
rfemur -21.2062 4.82903 19.8483
rtibia 36.3318
rfoot -19.7562 -11.4948
rtoes 8.68382
lfemur -19.8268 1.633 -20.6934
ltibia 35.9249
lfoot -23.557 10.89
ltoes 14.2944
6
root 3.80398 16.8686 -18.8146 8.07673 -5.91564 -1.00638
lowerback -4.6233 0.0855264 -2.02239
upperback -0.797349 0.176916 1.82169
thorax 1.76028 0.0726312 3.02153
lowerneck -9.70925 -1.7413 -3.78834
upperneck 3.75596 -2.06005 3.30168
head 3.01732 -0.957894 1.63814
rclavicle -9.24349e-015 -7.15625e-015
rhumerus -38.1348 5.89429 -89.9078
rradius 35.5872
rwrist 12.9265
rhand -31.111 -22.6332
rfingers 7.12502
rthumb -4.39028 -52.5677
lclavicle -9.24349e-015 -7.15625e-015
lhumerus -37.511 -5.86975 95.0469
lradius 39.1525
lwrist 6.10615
lhand -12.3844 6.90148
lfingers 7.12502
lthumb 13.6865 36.4314
rfemur -21.2624 4.75244 19.8584
rtibia 36.338
rfoot -19.8452 -11.2774
rtoes 9.61073
lfemur -19.8356 1.62351 -20.6874
ltibia 35.9051
lfoot -23.5495 10.9583
ltoes 14.4211
7
root 3.8024 16.8698 -18.816 8.0952 -5.96076 -1.00809
lowerback -4.58088 0.0834971 -2.00694
upperback -0.828977 0.172994 1.82258
thorax 1.70433 0.0719239 3.0131
lowerneck -9.73701 -1.71715 -3.78352
upperneck 3.73524 -2.02799 3.31597
head 3.01442 -0.941094 1.64377
rclavicle 5.24295e-015 2.34566e-014
rhumerus -38.1537 5.88502 -89.8845
rradius 35.5325
rwrist 12.9581
rhand -31.124 -22.6156
rfingers 7.12502
rthumb -4.40292 -52.5498
lclavicle 5.24295e-015 2.34566e-014
lhumerus -37.6009 -5.80269 95.0067
lradius 39.171
lwrist 6.14463
lhand -12.4084 7.00539
lfingers 7.12502
lthumb 13.6635 36.5369
rfemur -21.3197 4.67359 19.8676
rtibia 36.3474
rfoot -19.9404 -11.0593
rtoes 10.6037
lfemur -19.8479 1.62465 -20.6824
ltibia 35.8832
lfoot -23.5427 11.0107
ltoes 14.5369
8
root 3.80073 16.8708 -18.8176 8.11426 -6.00222 -1.00578
lowerback -4.5472 0.0823596 -1.99969
upperback -0.854733 0.170767 1.82344
thorax 1.65917 0.0717893 3.00946
lowerneck -9.76499 -1.69515 -3.77921
upperneck 3.71085 -1.9987 3.33083
head 3.01044 -0.925651 1.6495
rclavicle 1.40143e-014 -2.82274e-014
rhumerus -38.1645 5.86653 -89.8562
rradius 35.4827
rwrist 12.9795
rhand -31.1305 -22.598
rfingers 7.12502
rthumb -4.40912 -52.5321
lclavicle 1.40143e-014 -2.82274e-014
lhumerus -37.6847 -5.75822 94.977
lradius 39.1918
lwrist 6.18685
lhand -12.4603 6.98102
lfingers 7.12502
lthumb 13.6134 36.5159
rfemur -21.372 4.59104 19.8731
rtibia 36.3505
rfoot -20.0217 -10.851
rtoes 11.4886
lfemur -19.8678 1.63519 -20.6818
ltibia 35.8711
lfoot -23.5386 11.0525
ltoes 14.6126
9
root 3.79875 16.8716 -18.8192 8.12495 -6.02387 -0.999083
lowerback -4.49364 0.0727751 -1.99495
upperback -0.886102 0.157226 1.82154
thorax 1.59788 0.0662827 3.00358
lowerneck -9.79522 -1.67085 -3.77672
upperneck 3.69846 -1.96655 3.3501
head 3.01101 -0.908647 1.65728
rclavicle 7.15625e-015 -1.19271e-014
rhumerus -38.1917 5.85346 -89.8397
rradius 35.4445
rwrist 12.9892
rhand -31.1342 -22.5916
rfingers 7.12502
rthumb -4.41274 -52.5256
lclavicle 7.15625e-015 -1.19271e-014
lhumerus -37.7829 -5.72513 94.9477
lradius 39.2173
lwrist 6.22747
lhand -12.5214 6.86355
lfingers 7.12502
lthumb 13.5545 36.4024
rfemur -21.4056 4.51751 19.8768
rtibia 36.3522
rfoot -20.0935 -10.6857
rtoes 12.2172
lfemur -19.8825 1.65249 -20.6827
ltibia 35.8614
lfoot -23.5331 11.0695
ltoes 14.6455
10
root 3.79666 16.8723 -18.8209 8.13142 -6.03479 -0.99155
lowerback -4.4473 0.0618631 -1.99246
upperback -0.910496 0.142091 1.81963
thorax 1.5479 0.0597224 2.99899
lowerneck -9.82377 -1.6479 -3.77484
upperneck 3.68329 -1.93613 3.3694
head 3.01038 -0.892522 1.66508
rclavicle -2.73329e-016 3.18055e-015
rhumerus -38.2158 5.83868 -89.8232
rradius 35.4163
rwrist 12.9915
rhand -31.1323 -22.5928
rfingers 7.12502
rthumb -4.41085 -52.5268
lclavicle -2.73329e-016 3.18055e-015
lhumerus -37.8725 -5.71422 94.9268
lradius 39.2408
lwrist 6.26248
lhand -12.5643 6.76754
lfingers 7.12502
lthumb 13.5132 36.3091
rfemur -21.4273 4.44737 19.8804
rtibia 36.3525
rfoot -20.1466 -10.556
rtoes 12.7328
lfemur -19.8952 1.67263 -20.6835
ltibia 35.8538
lfoot -23.5249 11.0731
ltoes 14.6471
11
root 3.79457 16.8728 -18.8225 8.13455 -6.0381 -0.981462
lowerback -4.42234 0.0523849 -1.99694
upperback -0.921145 0.129393 1.81889
thorax 1.52383 0.0538205 2.99985
lowerneck -9.84738 -1.62849 -3.77021
upperneck 3.6579 -1.9104 3.38305
head 3.00532 -0.87892 1.67014
rclavicle -1.87355e-014 -2.0276e-014
rhumerus -38.2293 5.82331 -89.8027
rradius 35.3989
rwrist 12.9826
rhand -31.1327 -22.6063
rfingers 7.12502
rthumb -4.41126 -52.5404
lclavicle -1.87355e-014 -2.0276e-014
lhumerus -37.9405 -5.73008 94.9183
lradius 39.2573
lwrist 6.28451
lhand -12.5884 6.66178
lfingers 7.12502
lthumb 13.49 36.2049
rfemur -21.4374 4.38375 19.8806
rtibia 36.3514
rfoot -20.1832 -10.459
rtoes 13.0281
lfemur -19.9058 1.69171 -20.6869
ltibia 35.8482
lfoot -23.5145 11.069
ltoes 14.6081
12
root 3.79253 16.8733 -18.824 8.13335 -6.03433 -0.970637
lowerback -4.39056 0.0401901 -1.99733
upperback -0.934252 0.112844 1.81576
thorax 1.4937 0.0461283 2.99571
lowerneck -9.87015 -1.60703 -3.76443
upperneck 3.64153 -1.88212 3.39436
head 3.00302 -0.86415 1.67442
rclavicle 2.31087e-015 1.86858e-014
rhumerus -38.2553 5.81695 -89.7922
rradius 35.3914
rwrist 12.9693
rhand -31.1375 -22.625
rfingers 7.12502
rthumb -4.41596 -52.559
lclavicle 2.31087e-015 1.86858e-014
lhumerus -38.0117 -5.75566 94.9112
lradius 39.2707
lwrist 6.29403
lhand -12.5822 6.61698
lfingers 7.12502
lthumb 13.4959 36.1597
rfemur -21.4405 4.32284 19.8808
rtibia 36.3492
rfoot -20.1869 -10.4137
rtoes 13.0055
lfemur -19.912 1.70835 -20.691
ltibia 35.8435
lfoot -23.5018 11.0594
ltoes 14.5353
